<mxfile host="app.diagrams.net" modified="2024-01-22T18:17:43.593Z" agent="Mozilla/5.0 (Windows NT 10.0; Win64; x64) AppleWebKit/537.36 (KHTML, like Gecko) Chrome/120.0.0.0 Safari/537.36" etag="MbWg3gFIMVRpNWge-xd9" version="22.1.21" type="github">
  <diagram name="Page-1" id="74e2e168-ea6b-b213-b513-2b3c1d86103e">
    <mxGraphModel dx="2074" dy="1144" grid="1" gridSize="10" guides="1" tooltips="1" connect="1" arrows="1" fold="1" page="1" pageScale="1" pageWidth="1100" pageHeight="850" background="#ffffff" math="0" shadow="0">
      <root>
        <mxCell id="0" />
        <mxCell id="1" parent="0" />
        <mxCell id="C6t_tK3rfNQSNzl9fawz-2" value="Supervisor" style="swimlane;startSize=23;" vertex="1" parent="1">
          <mxGeometry x="40" width="360" height="2680" as="geometry" />
        </mxCell>
        <mxCell id="C6t_tK3rfNQSNzl9fawz-9" style="edgeStyle=orthogonalEdgeStyle;rounded=0;orthogonalLoop=1;jettySize=auto;html=1;exitX=0.5;exitY=1;exitDx=0;exitDy=0;" edge="1" parent="C6t_tK3rfNQSNzl9fawz-2" source="C6t_tK3rfNQSNzl9fawz-6" target="C6t_tK3rfNQSNzl9fawz-8">
          <mxGeometry relative="1" as="geometry" />
        </mxCell>
        <mxCell id="C6t_tK3rfNQSNzl9fawz-6" value="" style="ellipse;fillColor=strokeColor;html=1;" vertex="1" parent="C6t_tK3rfNQSNzl9fawz-2">
          <mxGeometry x="110" y="40" width="30" height="30" as="geometry" />
        </mxCell>
        <mxCell id="C6t_tK3rfNQSNzl9fawz-8" value="Monthly Performance Evaluation" style="ellipse;whiteSpace=wrap;html=1;" vertex="1" parent="C6t_tK3rfNQSNzl9fawz-2">
          <mxGeometry x="62.5" y="110" width="125" height="80" as="geometry" />
        </mxCell>
        <mxCell id="C6t_tK3rfNQSNzl9fawz-17" value="" style="edgeStyle=orthogonalEdgeStyle;rounded=0;orthogonalLoop=1;jettySize=auto;html=1;" edge="1" parent="C6t_tK3rfNQSNzl9fawz-2" source="C6t_tK3rfNQSNzl9fawz-14" target="C6t_tK3rfNQSNzl9fawz-16">
          <mxGeometry relative="1" as="geometry" />
        </mxCell>
        <mxCell id="C6t_tK3rfNQSNzl9fawz-14" value="Assess Individual and Team Achievements" style="ellipse;whiteSpace=wrap;html=1;" vertex="1" parent="C6t_tK3rfNQSNzl9fawz-2">
          <mxGeometry x="62.5" y="380" width="125" height="80" as="geometry" />
        </mxCell>
        <mxCell id="C6t_tK3rfNQSNzl9fawz-22" value="" style="edgeStyle=orthogonalEdgeStyle;rounded=0;orthogonalLoop=1;jettySize=auto;html=1;" edge="1" parent="C6t_tK3rfNQSNzl9fawz-2" source="C6t_tK3rfNQSNzl9fawz-16" target="C6t_tK3rfNQSNzl9fawz-21">
          <mxGeometry relative="1" as="geometry" />
        </mxCell>
        <mxCell id="C6t_tK3rfNQSNzl9fawz-16" value="Evaluate Employee Behavior and Competencies" style="ellipse;whiteSpace=wrap;html=1;" vertex="1" parent="C6t_tK3rfNQSNzl9fawz-2">
          <mxGeometry x="62.5" y="520" width="125" height="80" as="geometry" />
        </mxCell>
        <mxCell id="C6t_tK3rfNQSNzl9fawz-21" value="Employee Metrics Collected" style="ellipse;whiteSpace=wrap;html=1;" vertex="1" parent="C6t_tK3rfNQSNzl9fawz-2">
          <mxGeometry x="62.5" y="680" width="125" height="80" as="geometry" />
        </mxCell>
        <mxCell id="C6t_tK3rfNQSNzl9fawz-27" value="Update Employee Development Plans" style="ellipse;whiteSpace=wrap;html=1;" vertex="1" parent="C6t_tK3rfNQSNzl9fawz-2">
          <mxGeometry x="62.5" y="930" width="125" height="80" as="geometry" />
        </mxCell>
        <mxCell id="C6t_tK3rfNQSNzl9fawz-34" value="" style="edgeStyle=orthogonalEdgeStyle;rounded=0;orthogonalLoop=1;jettySize=auto;html=1;" edge="1" parent="C6t_tK3rfNQSNzl9fawz-2" source="C6t_tK3rfNQSNzl9fawz-31" target="C6t_tK3rfNQSNzl9fawz-33">
          <mxGeometry relative="1" as="geometry" />
        </mxCell>
        <mxCell id="C6t_tK3rfNQSNzl9fawz-31" value="Conduct Performance Review Meetings" style="ellipse;whiteSpace=wrap;html=1;" vertex="1" parent="C6t_tK3rfNQSNzl9fawz-2">
          <mxGeometry x="62.5" y="1340" width="125" height="80" as="geometry" />
        </mxCell>
        <mxCell id="C6t_tK3rfNQSNzl9fawz-33" value="Schedule and Conduct Meetings" style="ellipse;whiteSpace=wrap;html=1;" vertex="1" parent="C6t_tK3rfNQSNzl9fawz-2">
          <mxGeometry x="62.5" y="1480" width="125" height="80" as="geometry" />
        </mxCell>
        <mxCell id="C6t_tK3rfNQSNzl9fawz-46" value="" style="edgeStyle=orthogonalEdgeStyle;rounded=0;orthogonalLoop=1;jettySize=auto;html=1;" edge="1" parent="C6t_tK3rfNQSNzl9fawz-2" source="C6t_tK3rfNQSNzl9fawz-43" target="C6t_tK3rfNQSNzl9fawz-45">
          <mxGeometry relative="1" as="geometry" />
        </mxCell>
        <mxCell id="C6t_tK3rfNQSNzl9fawz-43" value="Provide Feedback to Employees" style="ellipse;whiteSpace=wrap;html=1;" vertex="1" parent="C6t_tK3rfNQSNzl9fawz-2">
          <mxGeometry x="70" y="1640" width="125" height="80" as="geometry" />
        </mxCell>
        <mxCell id="C6t_tK3rfNQSNzl9fawz-45" value="Share Performance Feedback" style="ellipse;whiteSpace=wrap;html=1;" vertex="1" parent="C6t_tK3rfNQSNzl9fawz-2">
          <mxGeometry x="70" y="1800" width="125" height="80" as="geometry" />
        </mxCell>
        <mxCell id="C6t_tK3rfNQSNzl9fawz-51" value="Set Performance Goals for Next Month" style="ellipse;whiteSpace=wrap;html=1;" vertex="1" parent="C6t_tK3rfNQSNzl9fawz-2">
          <mxGeometry x="70" y="2045" width="125" height="80" as="geometry" />
        </mxCell>
        <mxCell id="C6t_tK3rfNQSNzl9fawz-58" value="" style="edgeStyle=orthogonalEdgeStyle;rounded=0;orthogonalLoop=1;jettySize=auto;html=1;" edge="1" parent="C6t_tK3rfNQSNzl9fawz-2" source="C6t_tK3rfNQSNzl9fawz-55" target="C6t_tK3rfNQSNzl9fawz-57">
          <mxGeometry relative="1" as="geometry" />
        </mxCell>
        <mxCell id="C6t_tK3rfNQSNzl9fawz-55" value="Align Goals with Organizational Objectives" style="ellipse;whiteSpace=wrap;html=1;" vertex="1" parent="C6t_tK3rfNQSNzl9fawz-2">
          <mxGeometry x="62.5" y="2150" width="125" height="80" as="geometry" />
        </mxCell>
        <mxCell id="C6t_tK3rfNQSNzl9fawz-60" value="" style="edgeStyle=orthogonalEdgeStyle;rounded=0;orthogonalLoop=1;jettySize=auto;html=1;" edge="1" parent="C6t_tK3rfNQSNzl9fawz-2" source="C6t_tK3rfNQSNzl9fawz-57" target="C6t_tK3rfNQSNzl9fawz-59">
          <mxGeometry relative="1" as="geometry" />
        </mxCell>
        <mxCell id="C6t_tK3rfNQSNzl9fawz-57" value="Goals Set for Next Month" style="ellipse;whiteSpace=wrap;html=1;" vertex="1" parent="C6t_tK3rfNQSNzl9fawz-2">
          <mxGeometry x="62.5" y="2310" width="125" height="80" as="geometry" />
        </mxCell>
        <mxCell id="C6t_tK3rfNQSNzl9fawz-62" style="edgeStyle=orthogonalEdgeStyle;rounded=0;orthogonalLoop=1;jettySize=auto;html=1;exitX=0.5;exitY=1;exitDx=0;exitDy=0;entryX=0.5;entryY=0;entryDx=0;entryDy=0;" edge="1" parent="C6t_tK3rfNQSNzl9fawz-2" source="C6t_tK3rfNQSNzl9fawz-59" target="C6t_tK3rfNQSNzl9fawz-61">
          <mxGeometry relative="1" as="geometry" />
        </mxCell>
        <mxCell id="C6t_tK3rfNQSNzl9fawz-59" value="Monthly Performance Management Completed" style="ellipse;whiteSpace=wrap;html=1;" vertex="1" parent="C6t_tK3rfNQSNzl9fawz-2">
          <mxGeometry x="62.5" y="2470" width="125" height="80" as="geometry" />
        </mxCell>
        <mxCell id="C6t_tK3rfNQSNzl9fawz-61" value="" style="ellipse;html=1;shape=endState;fillColor=strokeColor;" vertex="1" parent="C6t_tK3rfNQSNzl9fawz-2">
          <mxGeometry x="110" y="2630" width="30" height="30" as="geometry" />
        </mxCell>
        <mxCell id="C6t_tK3rfNQSNzl9fawz-3" value="System" style="swimlane;" vertex="1" parent="1">
          <mxGeometry x="400" width="360" height="2680" as="geometry" />
        </mxCell>
        <mxCell id="C6t_tK3rfNQSNzl9fawz-19" value="" style="edgeStyle=orthogonalEdgeStyle;rounded=0;orthogonalLoop=1;jettySize=auto;html=1;" edge="1" parent="C6t_tK3rfNQSNzl9fawz-3" source="C6t_tK3rfNQSNzl9fawz-12" target="C6t_tK3rfNQSNzl9fawz-18">
          <mxGeometry relative="1" as="geometry" />
        </mxCell>
        <mxCell id="C6t_tK3rfNQSNzl9fawz-12" value="Gather Employee Performance Data" style="ellipse;whiteSpace=wrap;html=1;" vertex="1" parent="C6t_tK3rfNQSNzl9fawz-3">
          <mxGeometry x="117.5" y="200" width="125" height="80" as="geometry" />
        </mxCell>
        <mxCell id="C6t_tK3rfNQSNzl9fawz-18" value="Collect Employee Metrics" style="ellipse;whiteSpace=wrap;html=1;" vertex="1" parent="C6t_tK3rfNQSNzl9fawz-3">
          <mxGeometry x="117.5" y="320" width="125" height="80" as="geometry" />
        </mxCell>
        <mxCell id="C6t_tK3rfNQSNzl9fawz-26" value="" style="edgeStyle=orthogonalEdgeStyle;rounded=0;orthogonalLoop=1;jettySize=auto;html=1;" edge="1" parent="C6t_tK3rfNQSNzl9fawz-3" source="C6t_tK3rfNQSNzl9fawz-23" target="C6t_tK3rfNQSNzl9fawz-25">
          <mxGeometry relative="1" as="geometry" />
        </mxCell>
        <mxCell id="C6t_tK3rfNQSNzl9fawz-23" value="Update Performance Records" style="ellipse;whiteSpace=wrap;html=1;" vertex="1" parent="C6t_tK3rfNQSNzl9fawz-3">
          <mxGeometry x="117.5" y="680" width="125" height="80" as="geometry" />
        </mxCell>
        <mxCell id="C6t_tK3rfNQSNzl9fawz-25" value="Adjust Individual Performance Scores" style="ellipse;whiteSpace=wrap;html=1;" vertex="1" parent="C6t_tK3rfNQSNzl9fawz-3">
          <mxGeometry x="117.5" y="840" width="125" height="80" as="geometry" />
        </mxCell>
        <mxCell id="C6t_tK3rfNQSNzl9fawz-38" value="" style="edgeStyle=orthogonalEdgeStyle;rounded=0;orthogonalLoop=1;jettySize=auto;html=1;" edge="1" parent="C6t_tK3rfNQSNzl9fawz-3" source="C6t_tK3rfNQSNzl9fawz-29" target="C6t_tK3rfNQSNzl9fawz-37">
          <mxGeometry relative="1" as="geometry" />
        </mxCell>
        <mxCell id="C6t_tK3rfNQSNzl9fawz-29" value="Performance Records Updated" style="ellipse;whiteSpace=wrap;html=1;" vertex="1" parent="C6t_tK3rfNQSNzl9fawz-3">
          <mxGeometry x="117.5" y="1040" width="125" height="80" as="geometry" />
        </mxCell>
        <mxCell id="C6t_tK3rfNQSNzl9fawz-37" value="Score below threshold?" style="rhombus;whiteSpace=wrap;html=1;" vertex="1" parent="C6t_tK3rfNQSNzl9fawz-3">
          <mxGeometry x="120" y="1200" width="120" height="120" as="geometry" />
        </mxCell>
        <mxCell id="C6t_tK3rfNQSNzl9fawz-4" value="Employee" style="swimlane;startSize=23;" vertex="1" parent="1">
          <mxGeometry x="760" width="360" height="2680" as="geometry" />
        </mxCell>
        <mxCell id="C6t_tK3rfNQSNzl9fawz-42" value="" style="edgeStyle=orthogonalEdgeStyle;rounded=0;orthogonalLoop=1;jettySize=auto;html=1;" edge="1" parent="C6t_tK3rfNQSNzl9fawz-4" source="C6t_tK3rfNQSNzl9fawz-35" target="C6t_tK3rfNQSNzl9fawz-41">
          <mxGeometry relative="1" as="geometry" />
        </mxCell>
        <mxCell id="C6t_tK3rfNQSNzl9fawz-35" value="Conduct one-on-one meetings" style="ellipse;whiteSpace=wrap;html=1;" vertex="1" parent="C6t_tK3rfNQSNzl9fawz-4">
          <mxGeometry x="117.5" y="1480" width="125" height="80" as="geometry" />
        </mxCell>
        <mxCell id="C6t_tK3rfNQSNzl9fawz-41" value="Review Meetings Conducted" style="ellipse;whiteSpace=wrap;html=1;" vertex="1" parent="C6t_tK3rfNQSNzl9fawz-4">
          <mxGeometry x="117.5" y="1640" width="125" height="80" as="geometry" />
        </mxCell>
        <mxCell id="C6t_tK3rfNQSNzl9fawz-50" value="" style="edgeStyle=orthogonalEdgeStyle;rounded=0;orthogonalLoop=1;jettySize=auto;html=1;" edge="1" parent="C6t_tK3rfNQSNzl9fawz-4" source="C6t_tK3rfNQSNzl9fawz-47" target="C6t_tK3rfNQSNzl9fawz-49">
          <mxGeometry relative="1" as="geometry" />
        </mxCell>
        <mxCell id="C6t_tK3rfNQSNzl9fawz-47" value="Discuss Improvement Areas and Recognition" style="ellipse;whiteSpace=wrap;html=1;" vertex="1" parent="C6t_tK3rfNQSNzl9fawz-4">
          <mxGeometry x="117.5" y="1800" width="125" height="80" as="geometry" />
        </mxCell>
        <mxCell id="C6t_tK3rfNQSNzl9fawz-49" value="Feedback Provided" style="ellipse;whiteSpace=wrap;html=1;" vertex="1" parent="C6t_tK3rfNQSNzl9fawz-4">
          <mxGeometry x="117.5" y="1960" width="125" height="80" as="geometry" />
        </mxCell>
        <mxCell id="C6t_tK3rfNQSNzl9fawz-53" value="Collaborate with Employees to Set Goals" style="ellipse;whiteSpace=wrap;html=1;" vertex="1" parent="C6t_tK3rfNQSNzl9fawz-4">
          <mxGeometry x="110" y="2150" width="125" height="80" as="geometry" />
        </mxCell>
        <mxCell id="C6t_tK3rfNQSNzl9fawz-13" value="" style="edgeStyle=orthogonalEdgeStyle;rounded=0;orthogonalLoop=1;jettySize=auto;html=1;" edge="1" parent="1" source="C6t_tK3rfNQSNzl9fawz-8" target="C6t_tK3rfNQSNzl9fawz-12">
          <mxGeometry relative="1" as="geometry" />
        </mxCell>
        <mxCell id="C6t_tK3rfNQSNzl9fawz-20" style="edgeStyle=orthogonalEdgeStyle;rounded=0;orthogonalLoop=1;jettySize=auto;html=1;exitX=0;exitY=0.5;exitDx=0;exitDy=0;entryX=0.5;entryY=0;entryDx=0;entryDy=0;" edge="1" parent="1" source="C6t_tK3rfNQSNzl9fawz-18" target="C6t_tK3rfNQSNzl9fawz-14">
          <mxGeometry relative="1" as="geometry" />
        </mxCell>
        <mxCell id="C6t_tK3rfNQSNzl9fawz-24" value="" style="edgeStyle=orthogonalEdgeStyle;rounded=0;orthogonalLoop=1;jettySize=auto;html=1;" edge="1" parent="1" source="C6t_tK3rfNQSNzl9fawz-21" target="C6t_tK3rfNQSNzl9fawz-23">
          <mxGeometry relative="1" as="geometry" />
        </mxCell>
        <mxCell id="C6t_tK3rfNQSNzl9fawz-28" value="" style="edgeStyle=orthogonalEdgeStyle;rounded=0;orthogonalLoop=1;jettySize=auto;html=1;" edge="1" parent="1" source="C6t_tK3rfNQSNzl9fawz-25" target="C6t_tK3rfNQSNzl9fawz-27">
          <mxGeometry relative="1" as="geometry" />
        </mxCell>
        <mxCell id="C6t_tK3rfNQSNzl9fawz-30" value="" style="edgeStyle=orthogonalEdgeStyle;rounded=0;orthogonalLoop=1;jettySize=auto;html=1;" edge="1" parent="1" source="C6t_tK3rfNQSNzl9fawz-27" target="C6t_tK3rfNQSNzl9fawz-29">
          <mxGeometry relative="1" as="geometry" />
        </mxCell>
        <mxCell id="C6t_tK3rfNQSNzl9fawz-39" style="edgeStyle=orthogonalEdgeStyle;rounded=0;orthogonalLoop=1;jettySize=auto;html=1;exitX=0;exitY=0.5;exitDx=0;exitDy=0;entryX=0.5;entryY=0;entryDx=0;entryDy=0;" edge="1" parent="1" source="C6t_tK3rfNQSNzl9fawz-37" target="C6t_tK3rfNQSNzl9fawz-31">
          <mxGeometry relative="1" as="geometry" />
        </mxCell>
        <mxCell id="C6t_tK3rfNQSNzl9fawz-36" value="" style="edgeStyle=orthogonalEdgeStyle;rounded=0;orthogonalLoop=1;jettySize=auto;html=1;" edge="1" parent="1" source="C6t_tK3rfNQSNzl9fawz-33" target="C6t_tK3rfNQSNzl9fawz-35">
          <mxGeometry relative="1" as="geometry" />
        </mxCell>
        <mxCell id="C6t_tK3rfNQSNzl9fawz-40" value="Yes" style="text;html=1;align=center;verticalAlign=middle;resizable=0;points=[];autosize=1;strokeColor=none;fillColor=none;" vertex="1" parent="1">
          <mxGeometry x="460" y="1228" width="40" height="30" as="geometry" />
        </mxCell>
        <mxCell id="C6t_tK3rfNQSNzl9fawz-44" value="" style="edgeStyle=orthogonalEdgeStyle;rounded=0;orthogonalLoop=1;jettySize=auto;html=1;" edge="1" parent="1" source="C6t_tK3rfNQSNzl9fawz-41" target="C6t_tK3rfNQSNzl9fawz-43">
          <mxGeometry relative="1" as="geometry" />
        </mxCell>
        <mxCell id="C6t_tK3rfNQSNzl9fawz-48" value="" style="edgeStyle=orthogonalEdgeStyle;rounded=0;orthogonalLoop=1;jettySize=auto;html=1;" edge="1" parent="1" source="C6t_tK3rfNQSNzl9fawz-45" target="C6t_tK3rfNQSNzl9fawz-47">
          <mxGeometry relative="1" as="geometry" />
        </mxCell>
        <mxCell id="C6t_tK3rfNQSNzl9fawz-52" value="" style="edgeStyle=orthogonalEdgeStyle;rounded=0;orthogonalLoop=1;jettySize=auto;html=1;" edge="1" parent="1" source="C6t_tK3rfNQSNzl9fawz-49" target="C6t_tK3rfNQSNzl9fawz-51">
          <mxGeometry relative="1" as="geometry" />
        </mxCell>
        <mxCell id="C6t_tK3rfNQSNzl9fawz-54" value="" style="edgeStyle=orthogonalEdgeStyle;rounded=0;orthogonalLoop=1;jettySize=auto;html=1;" edge="1" parent="1" source="C6t_tK3rfNQSNzl9fawz-51" target="C6t_tK3rfNQSNzl9fawz-53">
          <mxGeometry relative="1" as="geometry" />
        </mxCell>
        <mxCell id="C6t_tK3rfNQSNzl9fawz-56" value="" style="edgeStyle=orthogonalEdgeStyle;rounded=0;orthogonalLoop=1;jettySize=auto;html=1;" edge="1" parent="1" source="C6t_tK3rfNQSNzl9fawz-53" target="C6t_tK3rfNQSNzl9fawz-55">
          <mxGeometry relative="1" as="geometry" />
        </mxCell>
        <mxCell id="C6t_tK3rfNQSNzl9fawz-63" style="edgeStyle=orthogonalEdgeStyle;rounded=0;orthogonalLoop=1;jettySize=auto;html=1;exitX=0.5;exitY=1;exitDx=0;exitDy=0;" edge="1" parent="1" source="C6t_tK3rfNQSNzl9fawz-37" target="C6t_tK3rfNQSNzl9fawz-51">
          <mxGeometry relative="1" as="geometry">
            <Array as="points">
              <mxPoint x="580" y="1920" />
              <mxPoint x="173" y="1920" />
            </Array>
          </mxGeometry>
        </mxCell>
        <mxCell id="C6t_tK3rfNQSNzl9fawz-64" value="No" style="text;html=1;align=center;verticalAlign=middle;resizable=0;points=[];autosize=1;strokeColor=none;fillColor=none;" vertex="1" parent="1">
          <mxGeometry x="580" y="1318" width="40" height="30" as="geometry" />
        </mxCell>
      </root>
    </mxGraphModel>
  </diagram>
</mxfile>
